HIERARCHY
ROOT hips
{
  OFFSET 0 10.6860622 2.3727825e-15
  CHANNELS 6 Xposition Yposition Zposition Yrotation Xrotation Zrotation
  JOINT leftUpperLeg
  {
    OFFSET 0.6642549969 -0.9402397400000004 0
    CHANNELS 3 Yrotation Xrotation Zrotation
    JOINT leftLowerLeg
    {
      OFFSET 0 -3.997221335632195 0
      CHANNELS 3 Yrotation Xrotation Zrotation
      JOINT leftFoot
      {
        OFFSET -0.13777839790000004 -4.6145792000000005 -0.22186036399999998
        CHANNELS 3 Yrotation Xrotation Zrotation
        JOINT leftToes
        {
          OFFSET -0.03777410834999995 -0.9130806927000008 0.85230013
          CHANNELS 3 Yrotation Xrotation Zrotation
          End Site
          {
            OFFSET -0.03777410834999995 -0.9130806927000008 0.85230013
          }
        }
      }
    }
  }
  JOINT rightUpperLeg
  {
    OFFSET -0.6642778626 -0.9402397400000004 0
    CHANNELS 3 Yrotation Xrotation Zrotation
    JOINT rightLowerLeg
    {
      OFFSET 0 -3.997221452859387 0
      CHANNELS 3 Yrotation Xrotation Zrotation
      JOINT rightFoot
      {
        OFFSET 0.1377926176 -4.6145792000000005 -0.22185782299999995
        CHANNELS 3 Yrotation Xrotation Zrotation
        JOINT rightToes
        {
          OFFSET 0.037780746850000047 -0.9130806927000008 0.85230167
          CHANNELS 3 Yrotation Xrotation Zrotation
          End Site
          {
            OFFSET 0.037780746850000047 -0.9130806927000008 0.85230167
          }
        }
      }
    }
  }
  JOINT spine
  {
    OFFSET 0 0.13988381660000015 0
    CHANNELS 3 Yrotation Xrotation Zrotation
    JOINT chest
    {
      OFFSET 0 0.6191039003973773 0
      CHANNELS 3 Yrotation Xrotation Zrotation
      JOINT upperChest
      {
        OFFSET 0 0.9855186130586943 0
        CHANNELS 3 Yrotation Xrotation Zrotation
        JOINT leftShoulder
        {
          OFFSET 0.1807663869 1.5087829790000005 0
          CHANNELS 3 Yrotation Xrotation Zrotation
          JOINT leftUpperArm
          {
            OFFSET 0.5985063006419806 0 0
            CHANNELS 3 Yrotation Xrotation Zrotation
            JOINT leftLowerArm
            {
              OFFSET 2.2993332369501065 0 0
              CHANNELS 3 Yrotation Xrotation Zrotation
              JOINT leftHand
              {
                OFFSET 2.395047042602395 0 0
                CHANNELS 3 Yrotation Xrotation Zrotation
                JOINT leftIndexProximal
                {
                  OFFSET 0.5766295810000004 0.04556643899499946 0.17265095988184
                  CHANNELS 3 Yrotation Xrotation Zrotation
                  JOINT leftIndexIntermediate
                  {
                    OFFSET 0.2957229000000008 -0.019352197700001517 -0.007932640616999987
                    CHANNELS 3 Yrotation Xrotation Zrotation
                    JOINT leftIndexDistal
                    {
                      OFFSET 0.19008243099999922 -0.012484908149998475 -0.002786250786000012
                      CHANNELS 3 Yrotation Xrotation Zrotation
                      End Site
                      {
                        OFFSET 0.19008243099999922 -0.012484908149998475 -0.002786250786000012
                      }
                    }
                  }
                }
                JOINT leftMiddleProximal
                {
                  OFFSET 0.5834975091000001 0.0524350405149987 0.02204081888183999
                  CHANNELS 3 Yrotation Xrotation Zrotation
                  JOINT leftMiddleIntermediate
                  {
                    OFFSET 0.33880573540000003 -0.019871473270000717 -0.00000971183179999946
                    CHANNELS 3 Yrotation Xrotation Zrotation
                    JOINT leftMiddleDistal
                    {
                      OFFSET 0.20676022730000088 -0.012221336379999448 0.0001471936708000235
                      CHANNELS 3 Yrotation Xrotation Zrotation
                      End Site
                      {
                        OFFSET 0.20676022730000088 -0.012221336379999448 0.0001471936708000235
                      }
                    }
                  }
                }
                JOINT leftLittleProximal
                {
                  OFFSET 0.5344154683999995 -0.012880921405001189 -0.24414037221816004
                  CHANNELS 3 Yrotation Xrotation Zrotation
                  JOINT leftLittleIntermediate
                  {
                    OFFSET 0.21758961730000093 -0.011650919939999227 0.011893592810000034
                    CHANNELS 3 Yrotation Xrotation Zrotation
                    JOINT leftLittleDistal
                    {
                      OFFSET 0.1475273964999999 -0.008152365682999818 0.006001092492999946
                      CHANNELS 3 Yrotation Xrotation Zrotation
                      End Site
                      {
                        OFFSET 0.1475273964999999 -0.008152365682999818 0.006001092492999946
                      }
                    }
                  }
                }
                JOINT leftRingProximal
                {
                  OFFSET 0.5799399463000003 0.026911854694997794 -0.12150566991816003
                  CHANNELS 3 Yrotation Xrotation Zrotation
                  JOINT leftRingIntermediate
                  {
                    OFFSET 0.26167887460000006 -0.013480186499999602 0.010996293000000053
                    CHANNELS 3 Yrotation Xrotation Zrotation
                    JOINT leftRingDistal
                    {
                      OFFSET 0.17667108799999987 -0.008990287899999228 0.0055541023999999065
                      CHANNELS 3 Yrotation Xrotation Zrotation
                      End Site
                      {
                        OFFSET 0.17667108799999987 -0.008990287899999228 0.0055541023999999065
                      }
                    }
                  }
                }
                JOINT leftThumbProximal
                {
                  OFFSET 0.11018806699999972 -0.09448718900500053 0.17047963138184
                  CHANNELS 3 Yrotation Xrotation Zrotation
                  JOINT leftThumbIntermediate
                  {
                    OFFSET 0.31062601459999983 -0.08126270900000132 0.15443142000000007
                    CHANNELS 3 Yrotation Xrotation Zrotation
                    JOINT leftThumbDistal
                    {
                      OFFSET 0.21627175790000086 -0.08833193599999878 0.018771167799999988
                      CHANNELS 3 Yrotation Xrotation Zrotation
                      End Site
                      {
                        OFFSET 0.21627175790000086 -0.08833193599999878 0.018771167799999988
                      }
                    }
                  }
                }
              }
            }
          }
        }
        JOINT neck
        {
          OFFSET 0 1.5463305265074576 0
          CHANNELS 3 Yrotation Xrotation Zrotation
          JOINT head
          {
            OFFSET 0 0.8456443600000344 0
            CHANNELS 3 Yrotation Xrotation Zrotation
            JOINT leftEye
            {
              OFFSET 0.30408573140000006 0.5104519199999995 0.1276382305
              CHANNELS 3 Yrotation Xrotation Zrotation
              End Site
              {
                OFFSET 0.30408573140000006 0.5104519199999995 0.1276382305
              }
            }
            JOINT rightEye
            {
              OFFSET -0.30409491089999996 0.5104519199999995 0.1276379445
              CHANNELS 3 Yrotation Xrotation Zrotation
              End Site
              {
                OFFSET -0.30409491089999996 0.5104519199999995 0.1276379445
              }
            }
            JOINT jaw
            {
              OFFSET -3.155239131000001e-7 -0.11984121820000082 0.60178107
              CHANNELS 3 Yrotation Xrotation Zrotation
              End Site
              {
                OFFSET -3.155239131000001e-7 -0.11984121820000082 0.60178107
              }
            }
          }
        }
        JOINT rightShoulder
        {
          OFFSET -0.1807303465 1.5087829790000005 0
          CHANNELS 3 Yrotation Xrotation Zrotation
          JOINT rightUpperArm
          {
            OFFSET -0.5985063796536958 0 0
            CHANNELS 3 Yrotation Xrotation Zrotation
            JOINT rightLowerArm
            {
              OFFSET -2.2993322059002854 0 0
              CHANNELS 3 Yrotation Xrotation Zrotation
              JOINT rightHand
              {
                OFFSET -2.395045314457259 0 0
                CHANNELS 3 Yrotation Xrotation Zrotation
                JOINT rightIndexProximal
                {
                  OFFSET -0.5764487688300002 0.0441371204405987 0.17361932004999997
                  CHANNELS 3 Yrotation Xrotation Zrotation
                  JOINT rightIndexIntermediate
                  {
                    OFFSET -0.29573011380000047 -0.01934826376999843 -0.007698921482999974
                    CHANNELS 3 Yrotation Xrotation Zrotation
                    JOINT rightIndexDistal
                    {
                      OFFSET -0.19008373999999884 -0.012503266380000655 -0.0026365778999999897
                      CHANNELS 3 Yrotation Xrotation Zrotation
                      End Site
                      {
                        OFFSET -0.19008373999999884 -0.012503266380000655 -0.0026365778999999897
                      }
                    }
                  }
                }
                JOINT rightMiddleProximal
                {
                  OFFSET -0.5834852037300005 0.05211639405060153 0.02307162440000001
                  CHANNELS 3 Yrotation Xrotation Zrotation
                  JOINT rightMiddleIntermediate
                  {
                    OFFSET -0.33880114510000003 -0.019952774050000954 0.0002455003561999819
                    CHANNELS 3 Yrotation Xrotation Zrotation
                    JOINT rightMiddleDistal
                    {
                      OFFSET -0.20675694929999955 -0.012273788999999091 0.00030209124000002766
                      CHANNELS 3 Yrotation Xrotation Zrotation
                      End Site
                      {
                        OFFSET -0.20675694929999955 -0.012273788999999091 0.00030209124000002766
                      }
                    }
                  }
                }
                JOINT rightLittleProximal
                {
                  OFFSET -0.5346811737299992 -0.011214256288399227 -0.24363941305000003
                  CHANNELS 3 Yrotation Xrotation Zrotation
                  JOINT rightLittleIntermediate
                  {
                    OFFSET -0.21757715980000092 -0.011771559690000988 0.01201554387
                    CHANNELS 3 Yrotation Xrotation Zrotation
                    JOINT rightLittleDistal
                    {
                      OFFSET -0.1475201849000004 -0.00822055339600003 0.006082065407000015
                      CHANNELS 3 Yrotation Xrotation Zrotation
                      End Site
                      {
                        OFFSET -0.1475201849000004 -0.00822055339600003 0.006082065407000015
                      }
                    }
                  }
                }
                JOINT rightRingProximal
                {
                  OFFSET -0.5800810755299999 0.027657985680600072 -0.12066365025000003
                  CHANNELS 3 Yrotation Xrotation Zrotation
                  JOINT rightRingIntermediate
                  {
                    OFFSET -0.26166445029999974 -0.013623118409999302 0.011164098990000045
                    CHANNELS 3 Yrotation Xrotation Zrotation
                    JOINT rightRingDistal
                    {
                      OFFSET -0.17666387530000027 -0.009072900100000503 0.005668185599999959
                      CHANNELS 3 Yrotation Xrotation Zrotation
                      End Site
                      {
                        OFFSET -0.17666387530000027 -0.009072900100000503 0.005668185599999959
                      }
                    }
                  }
                }
                JOINT rightThumbProximal
                {
                  OFFSET -0.10997596379000074 -0.09577489355940072 0.16989765924999997
                  CHANNELS 3 Yrotation Xrotation Zrotation
                  JOINT rightThumbIntermediate
                  {
                    OFFSET -0.31036620999999986 -0.08229339117999834 0.15440884469999996
                    CHANNELS 3 Yrotation Xrotation Zrotation
                    JOINT rightThumbDistal
                    {
                      OFFSET -0.21631306399999906 -0.08825326400000111 0.018656797720000014
                      CHANNELS 3 Yrotation Xrotation Zrotation
                      End Site
                      {
                        OFFSET -0.21631306399999906 -0.08825326400000111 0.018656797720000014
                      }
                    }
                  }
                }
              }
            }
          }
        }
      }
    }
  }
}
MOTION
Frames: 5
Frame Time: 0.03333333333333333
-0.2595503563201693 -10.56176809776812 -3.9430278863394386 -76.12535126861866 -0.002694277008594916 -89.99940779818014 -1.0871597586798212 -24.922962414098546 -4.051650625252905 2.228544628128437 5.486359735628011 1.6139308653803108 2.9935042277799373 22.19703079259278 4.138146236565648 0 0 0 0.6728210700672389 -13.631512977821634 1.1099646381278225 -13.693287996775164 50.25471353174395 9.172029371861662 -1.0256466861332894 41.34717724554828 -0.9183225534443242 0 0 0 -1.7051865392869914 8.98755500935733 5.63917655129734 -2.3228648645855015 4.234573081696215 9.608177638806204 0 0 0 -5.5694187797143675 55.03120065983389 56.90451263783429 -47.642431049397196 -0.9119116559283936 24.118724310628572 -44.74019140046744 -40.50544713924963 -2.56490798383684 -85.31444057551694 -40.03311126118533 47.73542047730989 0 0 0 0 0 0 0 0 0 0 0 0 0 0 0 0 0 0 0 0 0 0 0 0 0 0 0 0 0 0 0 0 0 0 0 0 0 0 0 0 0 0 0 0 0 27.44826256953422 -1.4985144470146736 13.892458212816818 -8.723829026719294 -25.509625458319245 13.418759521866411 0 0 0 0 0 0 0 0 0 26.382343712137892 -20.48975008724945 -1.1180656946268388 -4.208344926429086 -3.4398165394525924 77.28472509445218 85.4358837528314 -52.307298936981255 -30.67478913052301 -24.757467093517704 58.33314302537858 68.58199776382294 0 0 0 0 0 0 0 0 0 0 0 0 0 0 0 0 0 0 0 0 0 0 0 0 0 0 0 0 0 0 0 0 0 0 0 0 0 0 0 0 0 0 0 0 0
-0.23854946626728274 -10.56176809776812 -3.9430278863394386 -76.75279719174388 -0.0026374281067665867 -89.9993312807494 -1.0533864398646615 -25.42185393872983 -4.021274427261603 2.2209115884770045 4.969891865273035 1.5495330626893566 2.9607016758271447 22.681186553011024 4.187957524691692 0 0 0 0.14566948657170195 -14.342993297171553 0.950308275822743 -13.693287996775164 50.25471353174395 9.172029371861662 -0.7949737287218048 41.474512608461225 -1.3000946088342897 0 0 0 -1.7080100167021612 9.564235775931886 5.621726025198483 -2.3185567389078225 2.4030790206180925 9.682484444690266 0 0 0 -5.332846641447849 55.435507511224195 57.097317291982854 -47.803533169131406 -0.8465871285629083 24.16495715958902 -45.251883577376375 -40.517898764229955 -2.553686555592168 -85.1480744064656 -39.69134673790439 47.97176615862669 0 0 0 0 0 0 0 0 0 0 0 0 0 0 0 0 0 0 0 0 0 0 0 0 0 0 0 0 0 0 0 0 0 0 0 0 0 0 0 0 0 0 0 0 0 27.540923923173033 -1.5662834920837176 14.009923252439856 -8.46163782026069 -25.683231761286102 13.345899998393538 0 0 0 0 0 0 0 0 0 25.927225351835542 -19.95386310920156 -0.7182128064929668 -4.230814354260065 -3.3015167208391336 77.51452971796269 85.6825072597384 -52.1989897250771 -30.58476603024213 -24.957843191136956 58.57701283701982 68.54911051372737 0 0 0 0 0 0 0 0 0 0 0 0 0 0 0 0 0 0 0 0 0 0 0 0 0 0 0 0 0 0 0 0 0 0 0 0 0 0 0 0 0 0 0 0 0
-0.22804902124083948 -10.56176809776812 -3.9430278863394386 -77.06648179139044 -0.002624124995997908 -89.99930454253274 -1.0365586056120453 -25.67128223373856 -4.0061624842355394 2.217316032895543 4.711676524803231 1.5173812760608227 2.944429480818885 22.923259401158248 4.212814296760186 0 0 0 -0.117703513322063 -14.699167302184707 0.8728483437473403 -13.693287996775164 50.25471353174395 9.172029371861662 -0.6799041803322549 41.538611774177454 -1.4909853312760641 0 0 0 -1.7094902927432964 9.852544417482736 5.612979090537786 -2.3172964442371207 1.4882674970136023 9.719515070948296 0 0 0 -5.212751320501206 55.63748105251876 57.19555816134004 -47.88406992927171 -0.8138737577888806 24.188004729874354 -45.50775178276433 -40.524102980184665 -2.548021583776188 -85.06450008734633 -39.5206775731965 48.089972908239424 0 0 0 0 0 0 0 0 0 0 0 0 0 0 0 0 0 0 0 0 0 0 0 0 0 0 0 0 0 0 0 0 0 0 0 0 0 0 0 0 0 0 0 0 0 27.587178796148393 -1.6002241340325718 14.068590560778464 -8.330389272322245 -25.769868081184327 13.309121702676919 0 0 0 0 0 0 0 0 0 25.70177007210607 -19.684854622349523 -0.5205235239614966 -4.241839690892247 -3.2323344259861715 77.62940456879025 85.80572317330885 -52.14493121902438 -30.53956797505213 -25.05866166591716 58.698919609678796 68.53196162241703 0 0 0 0 0 0 0 0 0 0 0 0 0 0 0 0 0 0 0 0 0 0 0 0 0 0 0 0 0 0 0 0 0 0 0 0 0 0 0 0 0 0 0 0 0
-0.2175485762143962 -10.56176809776812 -3.9430278863394386 -77.38016631462969 -0.0026106759766470963 -89.99927787753091 -1.0197684391414628 -25.920713339987078 -3.9910996071901055 2.213866961354485 4.453459436989115 1.485257585217232 2.9282424610489834 23.165340222198292 4.237641343056351 0 0 0 -0.38101316429430987 -15.055681730606839 0.7969565816545804 -13.693287996775164 50.25471353174395 9.172029371861662 -0.5650063426580351 41.603002886772806 -1.6818934691955152 0 0 0 -1.7110170598053351 10.140853716847234 5.604217133687241 -2.3166280857548855 0.5734552881079363 9.756514944474295 0 0 0 -5.091417207733762 55.83933354008339 57.29505998978201 -47.96459518168853 -0.7811280458345189 24.21100487636649 -45.76364863166829 -40.53028979776183 -2.542319616469199 -84.98067498497777 -39.35013970382012 48.20821274621371 0 0 0 0 0 0 0 0 0 0 0 0 0 0 0 0 0 0 0 0 0 0 0 0 0 0 0 0 0 0 0 0 0 0 0 0 0 0 0 0 0 0 0 0 0 27.63339961275151 -1.6342119940320194 14.12723251723431 -8.198982756749976 -25.856427275522236 13.272096762493861 0 0 0 0 0 0 0 0 0 25.477675165426945 -19.415118590891108 -0.32428786471802756 -4.252725576997344 -3.16313012728731 77.74425940670528 85.92885963728442 -52.090938257285885 -30.49423616686846 -25.159904318238407 58.82080590531672 68.51433754059023 0 0 0 0 0 0 0 0 0 0 0 0 0 0 0 0 0 0 0 0 0 0 0 0 0 0 0 0 0 0 0 0 0 0 0 0 0 0 0 0 0 0 0 0 0
-0.19654768616150958 -10.56176809776812 -3.9430278863394386 -78.00742267928739 -0.0025694357496311975 -89.99921648222197 -0.9863033408273513 -26.419536323986648 -3.961126376498889 2.2074092976243764 3.937082931962046 1.4210949759943614 2.896125830188048 23.649463157383536 4.287203642877942 0 0 0 -0.9073181642840231 -15.769427747598018 0.6499455948812185 -13.693287996775164 50.25471353174395 9.172029371861662 -0.3357647320224265 41.732596141395575 -2.063706814472354 0 0 0 -1.7142070701884704 10.717383644711001 5.586647457117424 -2.3170597927393284 -1.2533679563113391 9.83038606871141 0 0 0 -4.844947318715914 56.24265943652129 57.49795601791645 -48.125587502845505 -0.7155469229985029 24.256867835234804 -46.27543335033641 -40.542584254798825 -2.5308052442218156 -84.81231661445545 -39.00951393968531 48.44477981029136 0 0 0 0 0 0 0 0 0 0 0 0 0 0 0 0 0 0 0 0 0 0 0 0 0 0 0 0 0 0 0 0 0 0 0 0 0 0 0 0 0 0 0 0 0 27.725711736854258 -1.7023043349430111 14.244391138192977 -7.935865652526303 -26.02920418354406 13.197356266850338 0 0 0 0 0 0 0 0 0 25.03362536327791 -18.87362595167326 0.06377678313691842 -4.2740745166360865 -3.024661971908535 77.97388029815511 86.1748459433576 -51.98311455660587 -30.403160848520457 -25.363696390404982 59.06451841956709 68.47761475599891 0 0 0 0 0 0 0 0 0 0 0 0 0 0 0 0 0 0 0 0 0 0 0 0 0 0 0 0 0 0 0 0 0 0 0 0 0 0 0 0 0 0 0 0 0
